<?xml version="1.0" encoding="UTF-8"?>
<svg version="1.1" xmlns="http://www.w3.org/2000/svg" width="990" height="990">
<path d="M0 0 C326.7 0 653.4 0 990 0 C990 326.7 990 653.4 990 990 C663.3 990 336.6 990 0 990 C0 663.3 0 336.6 0 0 Z " fill="#FEFEFE" transform="translate(0,0)"/>
<path d="M0 0 C0.87720703 -0.01611328 1.75441406 -0.03222656 2.65820312 -0.04882812 C15.87881162 -0.05857065 28.60279905 5.67915148 38.5625 14.3125 C46.664082 22.43196629 54.99781449 33.12456014 55.8125 44.9375 C55.73 45.72125 55.6475 46.505 55.5625 47.3125 C56.2225 47.3125 56.8825 47.3125 57.5625 47.3125 C57.62125981 51.43743872 57.65634938 55.56226768 57.6875 59.6875 C57.70425781 60.84378906 57.72101563 62.00007813 57.73828125 63.19140625 C57.78824688 72.03532201 57.14267272 80.29209698 53.625 88.5 C53.30660156 89.25667969 52.98820312 90.01335937 52.66015625 90.79296875 C52.29792969 91.62441406 51.93570312 92.45585938 51.5625 93.3125 C51.09714844 94.43914062 50.63179687 95.56578125 50.15234375 96.7265625 C45.17181967 107.96027528 38.06325955 116.61941558 29.5625 125.3125 C28.94503906 125.98023438 28.32757812 126.64796875 27.69140625 127.3359375 C22.9283332 132.38456649 17.40714425 136.58084488 11.5625 140.3125 C10.9025 140.3125 10.2425 140.3125 9.5625 140.3125 C11.31313912 145.0000666 13.18719097 149.60363472 15.3984375 154.09375 C25.96246082 175.55601981 31.73601826 197.78781209 31.80273438 221.76391602 C31.81236716 223.84628395 31.84343383 225.92763118 31.875 228.00976562 C31.94880198 237.48101972 30.77311835 246.09428411 28.5625 255.3125 C28.21276123 256.78734863 28.21276123 256.78734863 27.85595703 258.29199219 C19.19671933 293.41737703 -4.26447974 322.92484013 -34.4375 342.3125 C-34.99743652 342.68084961 -35.55737305 343.04919922 -36.13427734 343.42871094 C-52.05008363 353.84058308 -70.13798437 361.23698771 -88.4375 366.3125 C-89.30665039 366.55516602 -90.17580078 366.79783203 -91.07128906 367.04785156 C-116.06416908 373.71086383 -145.44293381 374.54336948 -170.4375 367.3125 C-171.24960937 367.08175781 -172.06171875 366.85101562 -172.8984375 366.61328125 C-191.94580586 361.00587841 -209.9284588 351.71514449 -225.4375 339.3125 C-226.02080078 338.84730957 -226.60410156 338.38211914 -227.20507812 337.90283203 C-263.3827295 308.70118409 -287.82102482 263.43071192 -293.4375 217.3125 C-299.12640051 161.02977207 -282.35055571 104.20143997 -246.625 60.25 C-245.23708561 58.59748322 -243.84193101 56.95100285 -242.4375 55.3125 C-241.81359375 54.57773437 -241.1896875 53.84296875 -240.546875 53.0859375 C-239.18470985 51.48825781 -237.81255381 49.89910055 -236.4375 48.3125 C-236.1075 48.9725 -235.7775 49.6325 -235.4375 50.3125 C-236.38257441 52.22680407 -237.4228727 54.09426305 -238.5 55.9375 C-241.70770014 61.6067736 -244.13700027 67.35475854 -246.30688477 73.49072266 C-247.5261425 76.92974537 -248.84695263 80.24291188 -250.390625 83.55078125 C-252.82887406 88.95796049 -254.4267111 94.54061853 -256 100.25 C-256.45669067 101.89500488 -256.45669067 101.89500488 -256.92260742 103.57324219 C-259.40998974 112.760931 -261.11915181 121.89706291 -262.4375 131.3125 C-262.81197463 133.54175498 -263.18693521 135.77092842 -263.5625 138 C-269.80498194 180.18877375 -264.11927327 223.03782394 -244.63525391 260.96582031 C-243.34826395 263.48733426 -242.08656328 266.02075388 -240.82421875 268.5546875 C-235.54875293 279.02650127 -230.09466419 288.4041652 -222.4375 297.3125 C-221.71046875 298.1890625 -220.9834375 299.065625 -220.234375 299.96875 C-205.10414928 317.60253825 -186.72199127 326.7651028 -164.625 332.625 C-163.67085205 332.87958984 -162.7167041 333.13417969 -161.73364258 333.39648438 C-140.31498347 338.84911449 -113.56657126 338.96990365 -92.4375 332.3125 C-91.1690625 331.95027344 -89.900625 331.58804687 -88.59375 331.21484375 C-62.88726524 323.38073941 -41.50484404 308.14617085 -28.3125 284.375 C-13.73990211 256.8831501 -11.81633003 226.61567001 -20.77636719 197.06445312 C-26.37593077 179.66557357 -35.06256761 164.46580565 -46.7734375 150.46875 C-48.30965136 148.47816302 -49.40890736 146.59826143 -50.4375 144.3125 C-51.0975 144.3125 -51.7575 144.3125 -52.4375 144.3125 C-53.60956211 143.17491031 -54.77567582 142.03066303 -55.9140625 140.859375 C-64.89108242 131.74424708 -75.58623388 125.07601862 -87.4375 120.3125 C-88.79274659 119.73168003 -90.14699843 119.14853062 -91.5 118.5625 C-92.469375 118.15 -93.43875 117.7375 -94.4375 117.3125 C-94.4375 116.9825 -94.4375 116.6525 -94.4375 116.3125 C-93.74719696 116.26904953 -93.05689392 116.22559906 -92.34567261 116.18083191 C-85.72973185 115.76295409 -79.11434574 115.33720065 -72.49943352 114.9033308 C-69.10143162 114.68071621 -65.70330717 114.46079525 -62.3046875 114.24780273 C-49.18294484 113.42041475 -36.07931208 112.57801144 -23.0390625 110.859375 C-22.17989227 110.74945724 -21.32072205 110.63953949 -20.43551636 110.52629089 C-10.09202877 109.0533885 -1.02553251 105.28625234 7.5625 99.3125 C8.7690625 98.508125 8.7690625 98.508125 10 97.6875 C18.28656765 90.00726656 24.88892414 77.70459265 25.80078125 66.34375 C26.07706838 53.19829918 22.580736 42.90279898 13.59765625 33.1875 C1.41303208 21.55371779 -12.1038591 18.94878207 -28.375 19.0625 C-29.47779297 19.05476563 -30.58058594 19.04703125 -31.71679688 19.0390625 C-38.02958859 19.05395994 -43.92315916 19.56166395 -50.09985352 20.88378906 C-52.4375 21.3125 -52.4375 21.3125 -56.4375 21.3125 C-56.4375 20.6525 -56.4375 19.9925 -56.4375 19.3125 C-32.74720151 5.66902822 -32.74720151 5.66902822 -19.4375 2.3125 C-18.79707764 2.14258545 -18.15665527 1.9726709 -17.49682617 1.79760742 C-11.61801708 0.34201974 -6.04269115 -0.02210202 0 0 Z " fill="#030303" transform="translate(693.4375,440.6875)"/>
<path d="M0 0 C12.84017418 -0.46863677 24.28784272 0.3373622 36.59033203 4.09863281 C37.55712891 4.38738281 38.52392578 4.67613281 39.52001953 4.97363281 C53.86459946 9.74097095 66.26042524 17.19051825 77.59033203 27.09863281 C78.41017578 27.80503906 79.23001953 28.51144531 80.07470703 29.23925781 C104.52813403 51.95839921 118.44940828 90.49704879 119.96142578 123.11035156 C120.68446273 154.89430055 112.06655493 191.70878667 90.59033203 216.09863281 C89.94966797 216.88109375 89.30900391 217.66355469 88.64892578 218.46972656 C75.43764707 234.06536128 57.47610282 243.80136735 39.59033203 253.09863281 C38.87619141 253.48792969 38.16205078 253.87722656 37.42626953 254.27832031 C30.49210389 257.97450552 22.98672649 260.4990312 15.59033203 263.09863281 C14.78821289 263.3814209 13.98609375 263.66420898 13.15966797 263.95556641 C-20.92297468 275.79514848 -56.99068909 280.66440135 -92.84716797 283.16113281 C-93.96953857 283.24057129 -95.09190918 283.32000977 -96.24829102 283.40185547 C-120.91439685 285.0213731 -145.6412473 285.32097094 -170.3515625 285.57543945 C-204.10409659 285.86189799 -204.10409659 285.86189799 -237.40966797 290.84863281 C-238.61606934 291.1103125 -239.8224707 291.37199219 -241.06542969 291.64160156 C-259.77339889 295.82730001 -280.88104073 301.13970689 -292.28466797 317.97363281 C-299.95625654 331.92882268 -299.59030523 350.46814177 -295.47216797 365.53613281 C-291.80884865 377.68141368 -285.501481 389.3469607 -277.40966797 399.09863281 C-281.53309666 399.09863281 -283.19728842 396.91773741 -286.03466797 394.22363281 C-286.83481323 393.47098145 -286.83481323 393.47098145 -287.65112305 392.703125 C-303.6066635 377.52922675 -315.73307714 359.76490354 -316.61279297 337.04785156 C-316.89543883 321.74942223 -313.58350526 310.59364291 -302.90966797 299.03613281 C-286.43409218 283.6001249 -264.97407658 275.36221519 -243.40966797 270.09863281 C-242.38341309 269.84484863 -241.3571582 269.59106445 -240.29980469 269.32958984 C-204.97661471 260.7158667 -169.2657391 257.9860294 -133.03076172 256.64550781 C-110.18802942 255.79431276 -87.93468741 254.07329267 -65.40966797 250.09863281 C-64.2661084 249.89866699 -63.12254883 249.69870117 -61.94433594 249.49267578 C-20.26989944 242.00239706 27.71912072 225.79379119 54.59033203 191.09863281 C59.57855358 183.83556298 63.86208711 176.49424641 66.59033203 168.09863281 C66.88810547 167.2465625 67.18587891 166.39449219 67.49267578 165.51660156 C75.03693833 140.65877796 66.04087811 113.91953155 54.4140625 91.86767578 C46.1335518 76.90476879 34.68971271 64.02399532 21.59033203 53.09863281 C20.16914062 51.90560547 20.16914062 51.90560547 18.71923828 50.68847656 C0.85682922 36.33028533 -20.0617827 26.39545939 -40.40966797 16.09863281 C-40.40966797 14.77863281 -40.40966797 13.45863281 -40.40966797 12.09863281 C-26.72455489 4.9504534 -15.5869374 0.63800635 0 0 Z " fill="#030303" transform="translate(764.40966796875,565.9013671875)"/>
<path d="M0 0 C0.67405884 -0.00785522 1.34811768 -0.01571045 2.04260254 -0.02380371 C15.143589 -0.14240429 27.52256798 1.82184401 39.9375 6.0625 C40.68531738 6.31668701 41.43313477 6.57087402 42.20361328 6.83276367 C69.37184091 16.45016657 89.26991822 35.65383031 101.65625 61.35546875 C110.34107436 81.82305786 110.3960364 103.98245545 102.25 124.625 C96.27986781 137.78877295 85.9386574 148.05469836 72.9375 154.375 C70.13671875 155.0390625 70.13671875 155.0390625 67.9375 155.375 C69.23123614 151.71517958 70.98145506 148.58342592 73.06054688 145.31225586 C82.2104072 130.89070877 87.77476145 114.50358403 84.5390625 97.25048828 C79.78953792 77.69980103 67.33175091 58.56928349 50.15625 47.77734375 C47.9375 46.375 47.9375 46.375 46.21875 45.06640625 C32.13282382 34.79008283 11.60763031 34.56964185 -4.9519043 36.7565918 C-10.51010156 37.6926035 -15.74839267 39.0217902 -21 41.0625 C-21.67820801 41.32305176 -22.35641602 41.58360352 -23.05517578 41.85205078 C-47.64033893 51.61780784 -64.72368701 70.47204313 -75.0625 94.375 C-76.68458081 98.65748474 -77.98035421 102.92681126 -79.0625 107.375 C-79.28679687 108.28894531 -79.51109375 109.20289063 -79.7421875 110.14453125 C-86.23911162 141.96165964 -77.66254168 182.01316343 -63.02636719 210.49023438 C-62.00527214 212.48690453 -61.0225066 214.50017167 -60.0390625 216.515625 C-52.0499588 232.5652618 -41.19881344 246.23868656 -28.546875 258.890625 C-26.99070891 260.44679109 -25.45449555 262.02346315 -23.94921875 263.62890625 C4.49377579 293.48647245 51.23647836 318.31450698 92.2109375 322.953125 C94.9375 323.375 94.9375 323.375 97.64433289 324.33195496 C108.63013388 327.81148845 120.85838982 327.66857465 132.26171875 327.60546875 C133.66502337 327.6042704 135.0683288 327.60382516 136.47163391 327.6040802 C139.38161401 327.60253483 142.2914677 327.59439639 145.20141602 327.58081055 C148.89229277 327.56377604 152.58303241 327.55999893 156.2739439 327.56075573 C159.16106931 327.56048124 162.04816601 327.55495655 164.93528175 327.54775429 C166.94510682 327.54312227 168.95493778 327.54131107 170.96476746 327.53959656 C178.99795317 327.49855423 186.93766077 327.10924458 194.9375 326.375 C191.32243727 329.99006273 185.85006115 330.49648907 181 331.75 C179.80318604 332.06018066 178.60637207 332.37036133 177.37329102 332.68994141 C164.70827012 335.85598997 151.89850818 337.87097866 138.9375 339.375 C138.19674225 339.46129166 137.4559845 339.54758331 136.69277954 339.63648987 C130.76912412 340.28355575 124.92527974 340.53521029 118.96875 340.54296875 C118.04896362 340.54629715 117.12917725 340.54962555 116.18151855 340.55305481 C114.24536635 340.55808343 112.3092056 340.5604644 110.37304688 340.56030273 C107.47250339 340.5624738 104.57235071 340.58063108 101.671875 340.59960938 C92.72350439 340.62719128 83.87038433 340.46096062 74.96875 339.48828125 C73.89904968 339.37168404 73.89904968 339.37168404 72.80773926 339.25273132 C68.36240141 338.70471104 64.21913154 337.66751834 59.9375 336.375 C58.02605534 336.06948221 56.10873477 335.79875995 54.1875 335.5625 C12.38038514 329.34405042 -28.47202422 307.38845338 -58.47802734 277.92871094 C-60.16571278 276.27379104 -61.87357259 274.64126111 -63.58203125 273.0078125 C-71.51760439 265.33654359 -78.51636234 257.25507469 -85.0625 248.375 C-85.70703125 247.51390625 -86.3515625 246.6528125 -87.015625 245.765625 C-95.64331183 233.87340802 -102.13316817 220.76693876 -108.0625 207.375 C-108.52527344 206.33214844 -108.98804688 205.28929687 -109.46484375 204.21484375 C-113.82360875 193.64518677 -116.50566081 182.49302749 -119.0625 171.375 C-119.24619141 170.58867188 -119.42988281 169.80234375 -119.61914062 168.9921875 C-122.30743465 156.86808853 -122.36822582 144.61034273 -122.4375 132.25 C-122.4455365 131.45133514 -122.453573 130.65267029 -122.46185303 129.82980347 C-122.57600913 114.8613241 -121.11996194 100.02971228 -116.375 85.75 C-116.12153809 84.97132568 -115.86807617 84.19265137 -115.60693359 83.39038086 C-109.45858434 65.24592725 -99.28959109 50.08714662 -86.0625 36.375 C-85.28261719 35.52035156 -84.50273437 34.66570313 -83.69921875 33.78515625 C-70.13763556 19.35745514 -51.18328666 8.44936261 -32.0625 3.375 C-31.01578125 3.07722656 -29.9690625 2.77945312 -28.890625 2.47265625 C-19.33459053 0.20883586 -9.77353328 0.05581011 0 0 Z " fill="#030303" transform="translate(287.0625,504.625)"/>
<path d="M0 0 C3.52732494 2.82283167 6.79195065 5.82215827 10 9 C10.886875 9.825 11.77375 10.65 12.6875 11.5 C29.7777933 29.97599276 37.75480293 54.92342671 37.34765625 79.859375 C36.60492704 96.28021659 29.91388174 111.72958487 18 123 C15.14328005 125.33140367 12.23398906 127.23399915 9 129 C7.89785156 129.61875 7.89785156 129.61875 6.7734375 130.25 C-1.46046866 134.21549327 -11.14247969 134.30252754 -19.96875 132.33984375 C-27.2942145 129.72845131 -32.29411252 124.90882904 -37.5 119.3125 C-39.79496536 114.24445151 -39.73716977 109.46859615 -39 104 C-36.52504043 98.7645086 -32.21541538 94.60770769 -27 92 C-13.38898814 91.02241351 -13.38898814 91.02241351 -8 95 C-5.56527038 97.24514002 -3.24997896 99.57028899 -1 102 C2.98964796 100.708436 4.8520749 99.45867085 7.125 95.9375 C7.60195313 95.22464844 8.07890625 94.51179688 8.5703125 93.77734375 C12.3142895 86.50420811 13.50536855 79.88829451 13.375 71.75 C13.36484863 70.82977051 13.35469727 69.90954102 13.34423828 68.96142578 C12.95546046 51.79191207 7.34924149 38.99098704 -5 27 C-15.8421533 17.34175999 -28.59536872 14.17587759 -42.875 14.6328125 C-57.00699277 15.56220195 -69.52513596 23.93002054 -79 34 C-89.50888067 46.50691282 -93.32497433 60.65004397 -92.23193359 76.79394531 C-91.60665702 82.74131279 -89.89074807 88.34011361 -88 94 C-87.62617188 95.16015625 -87.25234375 96.3203125 -86.8671875 97.515625 C-83.88776079 106.31578601 -80.13705364 114.69504627 -76 123 C-75.58363281 123.8367627 -75.16726563 124.67352539 -74.73828125 125.53564453 C-64.34426417 146.26039135 -52.14598968 165.71220855 -39.63012695 185.20410156 C-24.91839856 208.13193941 -12.86838509 228.94296564 -12.70483398 257.00366211 C-12.69338261 258.36379456 -12.67304045 259.72388453 -12.64331055 261.08374023 C-12.26111058 278.64572202 -17.00751941 296.17781885 -29.1640625 309.34375 C-31.07883257 311.26528605 -33.01516244 313.15117923 -35 315 C-36.44853548 311.16509517 -35.50596185 308.62134084 -34.25 304.8125 C-33.68925781 303.07613281 -33.68925781 303.07613281 -33.1171875 301.3046875 C-32.46941459 299.38854806 -31.81272251 297.47528559 -31.1328125 295.5703125 C-23.17210826 273.16544388 -25.07418484 245.42960872 -35 224 C-40.26433646 213.30344392 -47.22659487 203.87198469 -54.29443359 194.31445312 C-57.05841036 190.56373744 -59.77742036 186.7808116 -62.5 183 C-65.73292396 178.51953631 -68.96873615 174.04123601 -72.21484375 169.5703125 C-75.48996943 165.05646019 -78.75040055 160.53226156 -82 156 C-82.57927246 155.19272461 -83.15854492 154.38544922 -83.75537109 153.55371094 C-98.22837924 133.32075391 -111.65206683 113.33906035 -118 89 C-118.22558594 88.17113281 -118.45117188 87.34226562 -118.68359375 86.48828125 C-122.92311292 67.86363496 -120.07266431 48.14371467 -112 31 C-111.60425781 30.13246094 -111.20851563 29.26492187 -110.80078125 28.37109375 C-106.80553168 20.32335608 -101.28675659 14.29580228 -95 8 C-94.34128906 7.3296875 -93.68257813 6.659375 -93.00390625 5.96875 C-67.92097926 -17.76563253 -28.02959839 -19.03387329 0 0 Z " fill="#050505" transform="translate(439,139)"/>
<path d="M0 0 C2.86029089 2.86029089 2.79404169 6.0404853 3.2890625 9.8984375 C3.39753006 10.70789322 3.50599762 11.51734894 3.61775208 12.35133362 C3.96776599 15.02429534 4.29920208 17.69898251 4.625 20.375 C4.73772247 21.29137238 4.85044495 22.20774475 4.96658325 23.15188599 C8.25620626 50.44652926 7.96429091 77.6717995 5 105 C4.84724609 106.4245752 4.84724609 106.4245752 4.69140625 107.87792969 C3.13319791 121.82966546 0.39639406 135.38703348 -3 149 C-3.21978516 149.88478027 -3.43957031 150.76956055 -3.66601562 151.68115234 C-4.30913631 154.24841802 -4.96329267 156.8124662 -5.625 159.375 C-5.81884277 160.12934326 -6.01268555 160.88368652 -6.21240234 161.66088867 C-7.51446719 166.57202149 -9.15382403 171.26940501 -11 176 C-11.39960937 177.08023438 -11.79921875 178.16046875 -12.2109375 179.2734375 C-14.44411442 185.22358003 -16.82717437 190.96033789 -19.7890625 196.5859375 C-20.70790594 198.41769636 -21.54408156 200.29120231 -22.33984375 202.1796875 C-30.27193522 220.90042744 -41.56577469 237.99564901 -52.86181641 254.81054688 C-57.10674127 261.13058374 -61.27319665 267.50165563 -65.4375 273.875 C-65.80775299 274.44162354 -66.17800598 275.00824707 -66.55947876 275.59204102 C-72.30593752 284.38866278 -78.02916197 293.20002822 -83.72607422 302.02880859 C-85.04482569 304.06936041 -86.36762032 306.1072423 -87.69140625 308.14453125 C-90.47078944 312.42336417 -93.23772678 316.71010599 -96 321 C-96.48082031 321.74475586 -96.96164062 322.48951172 -97.45703125 323.25683594 C-122.86350237 362.69049461 -143.19052061 403.49965333 -143.18530273 451.4362793 C-143.18747843 453.6653994 -143.20565879 455.89401455 -143.22460938 458.12304688 C-143.25543799 466.24132343 -142.80458095 473.95208672 -141.44311523 481.97241211 C-140.80589512 486.3262229 -140.81801299 490.61209092 -141 495 C-148.1020193 488.53613316 -150.65393842 477.97318425 -153 469 C-153.30164063 467.87722656 -153.60328125 466.75445313 -153.9140625 465.59765625 C-157.97768567 447.8050632 -157.70359839 427.86673122 -153.49609375 410.11523438 C-152.94767071 407.77687946 -152.45824129 405.42949614 -151.96875 403.078125 C-144.30290201 367.45546004 -127.14111971 336.46154855 -107.86962891 305.96337891 C-98.30555257 290.80423049 -89.00220115 275.49956022 -80 260 C-79.47438477 259.09588379 -78.94876953 258.19176758 -78.40722656 257.26025391 C-51.41729934 210.64657345 -26.54570455 162.14096655 -20.4296875 108.0625 C-20 105 -20 105 -19 103 C-18.62258405 100.5821791 -18.29165183 98.17835541 -18 95.75 C-17.91314941 95.04359375 -17.82629883 94.3371875 -17.73681641 93.609375 C-16.92121486 86.75403739 -16.40919178 79.891651 -16 73 C-17.175625 73.061875 -18.35125 73.12375 -19.5625 73.1875 C-31.30139223 73.11390193 -46.70787054 70.20220819 -55.46508789 61.55297852 C-58.76533518 57.74408884 -60.26912404 55.11335667 -60 50 C-57.9371697 46.6743473 -55.52979247 43.76489624 -52 42 C-52.04640625 41.04738281 -52.0928125 40.09476562 -52.140625 39.11328125 C-52.17671875 37.85902344 -52.2128125 36.60476563 -52.25 35.3125 C-52.29640625 34.07113281 -52.3428125 32.82976562 -52.390625 31.55078125 C-51.93160975 27.37833261 -50.97902549 25.89613087 -48 23 C-37.92769846 16.45204106 -25.46560233 17.87338599 -14 18 C-14.10441406 17.03900391 -14.10441406 17.03900391 -14.2109375 16.05859375 C-14.52522269 11.03751376 -14.49195101 7.86016137 -11.125 3.9375 C-7.53429704 0.25139189 -5.18860017 -0.32428751 0 0 Z " fill="#060606" transform="translate(655,253)"/>
<path d="M0 0 C1.66639526 0.00241699 1.66639526 0.00241699 3.36645508 0.00488281 C15.27139008 0.18216632 26.21875522 1.84821936 35.125 10.5 C41.19194034 20.12342262 41.2202314 31.87529706 39.3515625 42.80078125 C36.05932384 55.16932924 28.49922519 65.98569343 18.9375 74.375 C17.77004864 70.87264592 17.90460352 68.27301282 18.015625 64.58203125 C18.04290619 63.21551898 18.0689062 61.84898064 18.09375 60.48242188 C18.13678227 58.34034387 18.18708796 56.19963986 18.25976562 54.05834961 C18.80440458 43.33386601 18.80440458 43.33386601 14.40991211 33.86401367 C10.33453299 29.74268433 7.06640851 27.89252832 1.17773438 27.81884766 C0.50033203 27.83737793 -0.17707031 27.8559082 -0.875 27.875 C-1.93557617 27.89312744 -1.93557617 27.89312744 -3.01757812 27.91162109 C-8.84353312 28.13230121 -13.19137637 29.2288618 -18.0625 32.375 C-19.06990234 33.01115234 -19.06990234 33.01115234 -20.09765625 33.66015625 C-37.08757798 45.41233718 -47.39857824 66.71023651 -51.37109375 86.55078125 C-53.81133279 101.32622608 -52.82493901 116.9272342 -49.0625 131.375 C-48.88557617 132.0659375 -48.70865234 132.756875 -48.52636719 133.46875 C-45.69296985 144.27383001 -42.78662354 152.73344883 -32.9375 158.875 C-24.85946784 162.87575747 -17.48658585 162.32338909 -9 159.8125 C6.91558638 153.86235921 17.04671311 142.47275659 24.18310547 127.36865234 C25.92057918 122.77699852 25.6698938 118.14912252 24.9375 113.375 C24.36902344 114.08785156 23.80054688 114.80070312 23.21484375 115.53515625 C13.29190785 127.84357256 3.7400363 136.31941697 -11.0625 142.375 C-9.11834477 121.37812353 3.71884073 103.96778905 19.375 90.5 C33.54310422 78.75336126 33.54310422 78.75336126 41.11328125 78.1015625 C44.93290122 78.47137356 46.34676477 79.56837017 48.9375 82.375 C51.32440139 88.56602548 51.23656175 94.55072484 51.1875 101.125 C51.19523438 102.1459375 51.20296875 103.166875 51.2109375 104.21875 C51.14793082 129.04338336 40.02720269 147.32020478 22.9375 164.375 C22.06738281 165.25671875 21.19726562 166.1384375 20.30078125 167.046875 C7.9709268 178.86723133 -7.26916287 186.04415458 -24.41113281 185.84814453 C-39.05939927 185.27473588 -52.16802194 178.04190943 -62.0625 167.375 C-69.32744623 157.66926156 -73.62952224 146.91715158 -77.0625 135.375 C-77.36542969 134.37339844 -77.66835937 133.37179687 -77.98046875 132.33984375 C-82.76615089 113.84868692 -80.3614247 94.69109846 -76.0625 76.375 C-75.80082031 75.1684375 -75.53914062 73.961875 -75.26953125 72.71875 C-74.0484618 67.37572788 -72.44741287 62.51911266 -70.0859375 57.57421875 C-69.01475828 55.27240997 -68.13505086 52.94154696 -67.25 50.5625 C-58.89203588 29.77966968 -42.66318169 12.43878029 -22.09765625 3.49609375 C-14.53461912 0.7025395 -8.0125389 -0.01197599 0 0 Z " fill="#040404" transform="translate(321.0625,316.625)"/>
<path d="M0 0 C5.07975221 2.09368165 8.76313442 4.86836719 11 10 C13.60053091 17.09235701 11.67142554 22.98419491 8.75390625 29.6171875 C5.71241906 35.48339664 1.93107197 40.82766841 -1.81933594 46.25634766 C-7.569924 54.74904823 -11.01609164 60.58874213 -10 71 C-7.91776667 75.77178472 -5.06748644 78.24130469 -0.39453125 80.3046875 C8.64041223 82.92821106 16.63567428 80.57241356 25 77 C25.99 76.67 26.98 76.34 28 76 C28 75.34 28 74.68 28 74 C26.7315625 73.9071875 26.7315625 73.9071875 25.4375 73.8125 C20.39339852 72.62025783 16.93151171 70.3959808 13.66796875 66.34765625 C10.09405533 60.37429565 10.14328982 53.75652874 11 47 C13.58634501 41.31004098 18.68136815 36.66785443 24.27734375 33.85546875 C31.82881319 31.48276888 40.77322808 32.01208301 48 35.125 C49.69379041 36.03453538 51.36423106 36.98983143 53 38 C53.98226562 38.58201172 53.98226562 38.58201172 54.984375 39.17578125 C61.12060291 43.56074057 65.00878001 50.83686539 67 58 C68.60230202 68.19646739 67.88872321 78.80308945 63 88 C62.5875 88.79664062 62.175 89.59328125 61.75 90.4140625 C58.06070837 96.68166589 53.17036294 100.30164475 47 104 C46.35160156 104.40089844 45.70320312 104.80179687 45.03515625 105.21484375 C34.20307221 111.28355891 22.06175757 111.47708777 10 111 C8.93523438 110.98066406 7.87046875 110.96132812 6.7734375 110.94140625 C-7.01735147 110.3410157 -17.91383488 104.53758247 -27.25 94.6875 C-34.08774836 86.55757872 -35.84177315 79.41639462 -35.3828125 68.87890625 C-34.12219437 56.10550008 -26.27348051 47.92906776 -17.26953125 39.4921875 C-13.63744594 35.50377025 -12 32.41815767 -12 27 C-19.18427622 26.13788685 -24.28858332 28.63548775 -30.6328125 31.6875 C-34.04854251 33.01892144 -36.37610182 33.26435731 -40 33 C-34.50441861 20.88474102 -28.04789178 11.57282764 -17 4 C-16.41476562 3.56558594 -15.82953125 3.13117187 -15.2265625 2.68359375 C-10.38765459 -0.57642167 -5.61238931 -1.01724556 0 0 Z " fill="#040404" transform="translate(510,24)"/>
<path d="M0 0 C14.67835049 -0.50582195 27.67845205 2.26924722 40.75390625 9.18359375 C41.74003906 9.68632812 42.72617187 10.1890625 43.7421875 10.70703125 C58.16360745 18.51328906 67.88812768 30.5049739 72.75390625 46.18359375 C76.38626986 64.13932027 72.40298157 79.7782823 62.75390625 95.18359375 C55.51881438 105.85714512 47.04095664 115.34826154 36.4609375 122.80078125 C35.85637222 123.229319 35.25180695 123.65785675 34.62892151 124.09938049 C27.26619812 129.28191671 19.73081014 134.20114166 12.19140625 139.12109375 C10.65754186 140.12506129 9.12385341 141.12929767 7.59033203 142.13378906 C4.48192648 144.16929256 1.37250697 146.20323227 -1.73779297 148.23583984 C-5.95324047 150.99113662 -10.16481936 153.75228896 -14.375 156.515625 C-26.97093241 164.78141532 -39.58378681 173.01973796 -52.24609375 181.18359375 C-54.49924503 182.63754607 -56.7520294 184.09205967 -59.00415039 185.54760742 C-60.47134204 186.49553817 -61.93925082 187.44236009 -63.40795898 188.38793945 C-67.83812295 191.24639648 -72.20495065 194.17627975 -76.484375 197.2578125 C-78.24609375 198.18359375 -78.24609375 198.18359375 -82.24609375 198.18359375 C-80.60676984 194.0353046 -77.60722344 191.20165507 -74.49609375 188.12109375 C-73.630448 187.26064453 -73.630448 187.26064453 -72.74731445 186.3828125 C-67.21897239 180.98945356 -61.26229128 176.30443529 -55.12451172 171.63427734 C-51.69606107 168.98651887 -48.35015719 166.23703187 -44.99609375 163.49609375 C-43.64340008 162.39301955 -42.29054051 161.29014874 -40.9375 160.1875 C-39.98641357 159.41237061 -39.98641357 159.41237061 -39.01611328 158.62158203 C-36.66588044 156.71222045 -34.30140794 154.82109064 -31.93359375 152.93359375 C-23.8778194 146.50240056 -15.93257658 139.94841504 -8.08276367 133.26806641 C-4.67722164 130.37524625 -1.22915247 127.54570345 2.25390625 124.74609375 C7.63117821 120.37362589 12.68676059 115.69959444 17.74609375 110.96875 C20.13197473 108.7428704 22.57383032 106.60256478 25.06640625 104.49609375 C35.74491643 95.14396694 43.77359785 83.69869125 45.125 69.203125 C45.47782655 57.18860157 43.49255917 48.2242915 35.50390625 38.80859375 C24.78799691 27.73785298 11.78000418 22.27911011 -3.49609375 21.80859375 C-24.4521834 22.20438471 -43.36817994 35.85663826 -60.24609375 47.18359375 C-60.0402143 35.24258539 -53.78516987 24.74494108 -45.60546875 16.359375 C-32.13698993 3.93894006 -17.77712595 0.79599071 0 0 Z " fill="#050505" transform="translate(742.24609375,234.81640625)"/>
<path d="M0 0 C3.95030711 3.12349864 6.04685635 6.40243936 8 11 C8.29296875 14.08935547 8.29296875 14.08935547 8.1875 17.3671875 C8.16196045 18.57511963 8.1364209 19.78305176 8.11010742 21.02758789 C8.07377197 22.29723389 8.03743652 23.56687988 8 24.875 C7.75500023 42.96135253 9.02869678 60.53842872 21.09765625 75.08984375 C26.88557804 80.90153524 32.74394271 83.15190739 40.875 83.3125 C57.88255743 83.3125 72.47266738 74.84467925 85.4309082 64.5234375 C92.39296347 59.02191558 98.74519228 55.04137941 107.859375 55.5859375 C110 56 110 56 112.625 57.5625 C114.61614514 61.09225729 114.58575182 62.96482076 114 67 C106.91490646 84.92276626 89.94447905 94.92535698 72.99609375 102.30859375 C62.51668786 106.37812121 52.16655474 107.32863771 41 107.25 C39.90171875 107.25773438 38.8034375 107.26546875 37.671875 107.2734375 C21.58579451 107.23531883 9.00583061 103.6311968 -2.8203125 92.27734375 C-16.83579909 77.63392318 -24.37287022 56.28926965 -24.37524414 36.18212891 C-24.18719605 29.0864478 -22.44606004 22.65022572 -20 16 C-19.566875 14.81083984 -19.566875 14.81083984 -19.125 13.59765625 C-15.8098946 5.88707628 -8.73780443 -1.02797699 0 0 Z " fill="#030303" transform="translate(780,446)"/>
<path d="M0 0 C2.47776154 2.34590727 2.72640265 4.32893415 3.07421875 7.66796875 C2.91168693 16.20991909 -1.32950388 24.6695626 -7.23828125 30.66796875 C-15.26579301 36.87218022 -24.16774396 40.17003395 -33.67578125 43.29296875 C-35.09703677 43.77106738 -36.51817839 44.24950473 -37.93920898 44.72827148 C-47.87438213 48.04198263 -57.87206305 50.94539691 -68.11547852 53.15649414 C-69.91627194 53.59038284 -71.69648779 54.10831716 -73.46972656 54.64379883 C-77.44705554 55.72470677 -81.39363299 56.40246588 -85.46875 56.95703125 C-86.24915649 57.06554413 -87.02956299 57.17405701 -87.83361816 57.28585815 C-90.36313503 57.6314662 -92.89395877 57.96469162 -95.42578125 58.29296875 C-96.29055084 58.40535889 -97.15532043 58.51774902 -98.04629517 58.63354492 C-109.34845305 60.07563485 -120.5244414 61.14747833 -131.92578125 61.16796875 C-133.00819092 61.17393066 -134.09060059 61.17989258 -135.20581055 61.18603516 C-144.37309353 61.04051129 -153.93149568 59.75030066 -161.80078125 54.73046875 C-162.58582031 54.24707031 -163.37085938 53.76367188 -164.1796875 53.265625 C-167.02569447 51.05686438 -169.02979301 49.19132281 -169.53125 45.52734375 C-169.43359375 43.57421875 -169.3359375 41.62109375 -169.23828125 39.66796875 C-165.097991 37.37008234 -161.87185541 36.25183066 -157.15478516 35.93188477 C-155.97139557 35.84491837 -154.78800598 35.75795197 -153.5687561 35.66835022 C-152.29696503 35.5870134 -151.02517395 35.50567657 -149.71484375 35.421875 C-148.36833524 35.32507282 -147.02193087 35.22681231 -145.67562866 35.12718201 C-141.40578912 34.81412348 -137.13469071 34.52119865 -132.86328125 34.23046875 C-94.45313926 31.60815612 -59.85103463 27.12672315 -27.10546875 5.609375 C-19.63105527 0.71129205 -8.80184832 -5.23809822 0 0 Z " fill="#050505" transform="translate(658.23828125,150.33203125)"/>
<path d="M0 0 C2.70552388 2.19823815 4.44778333 3.89556667 6 7 C6 16.3383149 2.02315395 21.82883704 -4.3359375 28.421875 C-9.76297054 33.52362846 -15.46011145 37.47053634 -22 41 C-22.70898438 41.41765625 -23.41796875 41.8353125 -24.1484375 42.265625 C-32.80508507 47.06474891 -42.51703818 49.38645322 -52 52 C-52.6997998 52.20012695 -53.39959961 52.40025391 -54.12060547 52.60644531 C-68.12632261 56.57235877 -82.54658865 57.71061133 -97 59 C-97.7822998 59.07347656 -98.56459961 59.14695313 -99.37060547 59.22265625 C-103.91079974 59.63933017 -108.44404601 59.87145335 -113 60 C-114.04720215 60.03254883 -115.0944043 60.06509766 -116.17333984 60.09863281 C-119.8447132 60.19841757 -123.51516146 60.26005855 -127.1875 60.3125 C-128.35216797 60.34239014 -129.51683594 60.37228027 -130.71679688 60.40307617 C-144.24508043 60.49207804 -156.88983911 56.52906749 -167.125 47.4375 C-169 45 -169 45 -169.3125 42.1875 C-169.209375 41.465625 -169.10625 40.74375 -169 40 C-162.87001166 36.36741431 -158.13794523 35.15123848 -151 36 C-150.505 36.495 -150.505 36.495 -150 37 C-131.04644464 38.25861219 -111.39839005 37.31747509 -92.98120117 32.5 C-90.90921816 31.97708919 -88.83192885 31.533043 -86.73828125 31.10546875 C-67.07087362 27.0614145 -49.42246986 18.89088243 -32.14453125 8.8203125 C-10.77605969 -3.54951079 -10.77605969 -3.54951079 0 0 Z " fill="#040404" transform="translate(681,195)"/>
<path d="M0 0 C2.90911443 2.34606002 2.90911443 2.34606002 3.4375 6.375 C3.34187596 13.86953448 -1.06604093 19.90580418 -5.67578125 25.53125 C-20.5724125 40.05118482 -43.52632939 45.94220949 -62.8347168 51.85546875 C-65.08064363 52.56825824 -67.2942711 53.35113873 -69.515625 54.13671875 C-74.23894615 55.72004366 -78.95009205 56.5097957 -83.875 57.1875 C-84.68775391 57.30867188 -85.50050781 57.42984375 -86.33789062 57.5546875 C-97.81099638 59.20782098 -109.16413154 59.73184499 -120.75 59.6875 C-122.06838867 59.68266602 -123.38677734 59.67783203 -124.74511719 59.67285156 C-158.12635096 59.46755492 -158.12635096 59.46755492 -168.6875 50.125 C-170.24128963 48.35932997 -171.18363348 46.74243362 -172.0625 44.5625 C-171.74347423 41.21272937 -171.47070361 39.97070361 -169.0625 37.5625 C-167.02905273 37.29075623 -167.02905273 37.29075623 -164.49609375 37.25952148 C-163.54750488 37.24287949 -162.59891602 37.22623749 -161.62158203 37.20909119 C-160.59145996 37.20067703 -159.56133789 37.19226288 -158.5 37.18359375 C-156.90841064 37.15810204 -156.90841064 37.15810204 -155.28466797 37.13209534 C-151.87733998 37.0788324 -148.47002235 37.03867271 -145.0625 37 C-141.68361028 36.95586461 -138.30480846 36.90886206 -134.92602539 36.85719299 C-132.82241387 36.82562494 -130.71872712 36.79862024 -128.61499023 36.77696228 C-118.21307417 37.43403396 -118.21307417 37.43403396 -109.0625 34.5625 C-106.91897633 34.33161099 -104.77234156 34.12966584 -102.625 33.9375 C-76.7836295 30.99690966 -52.94341124 21.08905071 -31.1015625 7.29077148 C-21.82828887 1.44899406 -10.95672986 -5.14295483 0 0 Z " fill="#040404" transform="translate(636.0625,108.4375)"/>
<path d="M0 0 C5.83127851 4.41571453 11.07915896 10.2638035 12.15625 17.6328125 C12.90115958 26.9502881 12.35091604 34.98196705 6.6484375 42.6640625 C1.55846361 48.25119663 -3.89619312 51.17349194 -11.40234375 52.046875 C-20.85589423 52.40864229 -27.70676723 51.11670638 -34.90234375 44.8359375 C-41.06422862 38.43065177 -42.94308731 31.94825131 -43.34375 23.1953125 C-43.11833587 15.45909948 -40.93938049 10.01865835 -35.71875 4.30859375 C-26.00197482 -4.83370992 -11.8318683 -6.90192317 0 0 Z " fill="#020202" transform="translate(856.84375,458.3671875)"/>
<path d="M0 0 C2.67260454 2.57984604 4.98407574 5.200636 7.1875 8.1875 C17.07855728 21.03742056 29.24474384 28.92870306 43 37 C52.71367903 42.69986606 58.29202257 46.50221202 63 57 C62.59862444 53.18693216 61.67179629 49.71612819 60.375 46.125 C60.09398437 45.34382813 59.81296875 44.56265625 59.5234375 43.7578125 C54.92830104 35.43943727 47.80615458 30.33822004 40.0625 25.125 C38.55127563 24.09052734 38.55127563 24.09052734 37.00952148 23.03515625 C28.81449788 17.46022165 20.48428796 12.12258896 12 7 C12.66 6.67 13.32 6.34 14 6 C15.90087891 6.84521484 15.90087891 6.84521484 18.2265625 8.2109375 C19.08596436 8.70940186 19.94536621 9.20786621 20.83081055 9.72143555 C21.75289307 10.26711182 22.67497559 10.81278809 23.625 11.375 C25.53983358 12.4943984 27.4552036 13.61287966 29.37109375 14.73046875 C30.3235498 15.28782715 31.27600586 15.84518555 32.25732422 16.41943359 C34.68438238 17.8181139 37.1273652 19.1679816 39.59765625 20.48828125 C47.68892517 24.82100088 54.55531431 29.33393198 61 36 C61.59296875 36.59554687 62.1859375 37.19109375 62.796875 37.8046875 C67.67822574 43.04851478 70.58076451 48.75092496 71.5 55.875 C71.10921471 63.09729114 67.78889647 69.97467754 64 76 C48.83257286 73.49407725 32.46097666 70.17324781 22.53515625 57.32421875 C17.95937037 50.39650221 15.70890339 44.08349982 13.94702148 35.96557617 C11.47448194 25.64681263 6.51644775 16.0744998 2.05981445 6.49511719 C1.13723845 4.32309996 0.4860671 2.30267132 0 0 Z " fill="#0B0B0B" transform="translate(502,322)"/>
<path d="M0 0 C1.05084229 1.50904846 1.05084229 1.50904846 2.00878906 3.47485352 C2.3721637 4.20974503 2.73553833 4.94463654 3.10992432 5.70179749 C3.49130554 6.50274338 3.87268677 7.30368927 4.265625 8.12890625 C4.66328064 8.95196762 5.06093628 9.77502899 5.47064209 10.62303162 C6.30974358 12.36987277 7.14327452 14.11939891 7.97167969 15.87133789 C9.2382778 18.53782203 10.53584611 21.18760941 11.8359375 23.83789062 C12.64778539 25.53813179 13.45774255 27.2392773 14.265625 28.94140625 C14.65510315 29.72818253 15.0445813 30.5149588 15.44586182 31.32557678 C18.45890425 37.82775349 18.28729506 42.13811483 16 49 C6.30942154 48.91250042 1.0300721 43.04980403 -5.36523438 36.62255859 C-7.87967944 34.12688925 -10.5005116 31.75373696 -13.125 29.375 C-14.09179688 28.48941406 -15.05859375 27.60382813 -16.0546875 26.69140625 C-20.69457336 22.45151055 -25.34551077 18.22385736 -30 14 C-29 11 -29 11 -26.54736328 9.54199219 C-25.48243652 9.04860352 -24.41750977 8.55521484 -23.3203125 8.046875 C-22.16402344 7.510625 -21.00773437 6.974375 -19.81640625 6.421875 C-18.90785889 6.01098633 -18.90785889 6.01098633 -17.98095703 5.59179688 C-16.13230229 4.75331206 -14.29461619 3.89367936 -12.45703125 3.03125 C-3.38248683 -1.12749561 -3.38248683 -1.12749561 0 0 Z " fill="#070707" transform="translate(485,454)"/>
<path d="M0 0 C2 2 2 2 2.25 5.4375 C2 9 2 9 0 12 C-0.30961162 14.57346489 -0.30961162 14.57346489 -0.375 17.375 C-0.75226972 22.14746196 -1.25107052 24.74435072 -5 28 C-7.35098884 29.55165263 -9.48422744 30.79262158 -12 32 C-12.76699219 32.37511719 -13.53398437 32.75023437 -14.32421875 33.13671875 C-19.97537075 35.66509916 -25.85321368 37.86113825 -32 36 C-34.44070673 33.94399311 -36.29474704 31.77287126 -38.25 29.25390625 C-40.2204718 26.71604413 -42.46578452 24.95496622 -45 23 C-48 19.48275862 -48 19.48275862 -48 17 C-46.74445313 16.96261719 -45.48890625 16.92523438 -44.1953125 16.88671875 C-26.5309809 16.24601608 -13.08381101 12.67142728 0 0 Z " fill="#070707" transform="translate(481,423)"/>
<path d="M0 0 C27.73551757 8.78108196 55.39672239 23.65857997 69.375 50.3125 C73.66712494 58.91541129 73.36485749 71.46904911 71.10546875 80.625 C70.17393087 83.15298972 69.1915803 85.58492207 68 88 C67.67 88 67.34 88 67 88 C66.94392578 86.36804688 66.94392578 86.36804688 66.88671875 84.703125 C65.9665288 62.44571279 58.5107213 45.65526829 42.26953125 30.03515625 C32.69197065 21.44667247 22.09962272 14.77151299 11.13867188 8.08959961 C9.62756836 7.16546265 9.62756836 7.16546265 8.0859375 6.22265625 C7.1789209 5.67359619 6.2719043 5.12453613 5.33740234 4.55883789 C3.27346746 3.18237829 1.66311926 1.82695814 0 0 Z " fill="#0C0C0C" transform="translate(518,299)"/>
<path d="M0 0 C1.57297852 0.54720703 1.57297852 0.54720703 3.17773438 1.10546875 C10.90985577 3.84735577 10.90985577 3.84735577 13.1875 6.125 C13.6875 8.9375 13.6875 8.9375 13.1875 12.125 C10.60070939 15.34100995 8.93980081 16.72038888 4.9375 17.64453125 C-1.33213063 18.05549789 -6.87959776 16.42139459 -12.75 14.4375 C-13.48387939 14.19410889 -14.21775879 13.95071777 -14.97387695 13.69995117 C-19.53795841 12.03008821 -22.14553411 10.37993031 -24.8125 6.125 C-25.4375 3.625 -25.4375 3.625 -24.8125 1.125 C-17.22546466 -7.20223391 -9.48220048 -3.4318797 0 0 Z " fill="#F6F5F6" transform="translate(628.8125,300.875)"/>
<path d="M0 0 C1.29550781 -0.03738281 2.59101562 -0.07476562 3.92578125 -0.11328125 C8.28391612 0.38000712 10.39351167 1.45034551 13.6875 4.3125 C14.27093729 7.6540045 14.53001044 9.19025541 13.6875 12.3125 C11.15296343 15.53204645 9.57452695 17.01682435 5.6875 18.3125 C-3.14577908 19.18298469 -8.8657767 17.67465664 -15.875 12.375 C-17.3125 10.3125 -17.3125 10.3125 -17.4375 7.8125 C-15.8529836 4.29135244 -13.62978397 3.17017902 -10.3125 1.3125 C-6.74809582 0.12436527 -3.75775218 0.07062047 0 0 Z " fill="#F5F5F5" transform="translate(628.3125,275.6875)"/>
<path d="M0 0 C5.83096952 3.10157953 10.86601899 6.85556181 16 11 C15.85175781 11.58007812 15.70351563 12.16015625 15.55078125 12.7578125 C13.71533065 19.68414419 13.71533065 19.68414419 15.625 26.25 C19.49897743 31.09890399 19.49897743 31.09890399 25.07421875 33.27734375 C29.78221938 33.34928264 34.36620856 32.78873046 39 32 C39.625 33.875 39.625 33.875 40 36 C38 38 38 38 35 38.3125 C26.2313409 38.03790733 19.01193555 34.51044361 12.5 28.8125 C9.23152831 25.13546935 6.64282825 21.13862254 4 17 C3.34 16.01 2.68 15.02 2 14 C0.56982193 9.15328545 -0.25438424 5.08768471 0 0 Z " fill="#F2F1F2" transform="translate(520,352)"/>
<path d="M0 0 C2 3 2 3 2.75 5.5625 C4.22168811 9.6096423 6.29164339 12.98808764 8.5625 16.6328125 C10 19 10 19 11.08203125 21.2421875 C12.32810204 23.6282805 13.53663349 23.93476043 16 25 C17.25632321 25.69705675 18.50597271 26.40622868 19.75 27.125 C20.8225 27.74375 21.895 28.3625 23 29 C22.01 30.32 21.02 31.64 20 33 C9.39720097 27.36792969 2.2270694 20.4539945 -2 9 C-2 7.68 -2 6.36 -2 5 C-1.34 5 -0.68 5 0 5 C0 3.35 0 1.7 0 0 Z " fill="#151515" transform="translate(520,358)"/>
<path d="M0 0 C6.12937574 1.93202692 12.0155414 4.17593524 17.875 6.8125 C18.65149902 7.15925781 19.42799805 7.50601562 20.22802734 7.86328125 C26.32570434 10.62009512 32.21233283 13.63448429 38 17 C37.01 18.98 36.02 20.96 35 23 C29.78191645 20.08361037 24.75176347 16.95904362 19.75 13.6875 C18.25679811 12.71440214 16.76330795 11.7417465 15.26953125 10.76953125 C14.54588379 10.29854004 13.82223633 9.82754883 13.07666016 9.34228516 C9.34795833 6.93217434 5.58009481 4.58466513 1.80859375 2.2421875 C1.21175781 1.83226562 0.61492188 1.42234375 0 1 C0 0.67 0 0.34 0 0 Z " fill="#0D0D0D" transform="translate(518,299)"/>
<path d="M0 0 C4.70683068 1.36925984 8.62656775 3.41084213 12.75 6 C19.41405676 10.10526245 26.20306271 13.93028798 33.09667969 17.63671875 C33.82274414 18.03246094 34.54880859 18.42820312 35.296875 18.8359375 C35.93979492 19.18188965 36.58271484 19.5278418 37.24511719 19.88427734 C39.10462403 21.06651806 40.50363768 22.39017218 42 24 C39.90234375 25.28125 39.90234375 25.28125 37 26 C34.57224821 24.60728711 32.69480994 23.26634483 30.5625 21.5 C23.05843365 15.61548154 15.15674704 10.54257935 7.06274414 5.50976562 C6.14614014 4.93677734 5.22953613 4.36378906 4.28515625 3.7734375 C3.45894775 3.26216309 2.63273926 2.75088867 1.78149414 2.22412109 C1.19360107 1.82016113 0.60570801 1.41620117 0 1 C0 0.67 0 0.34 0 0 Z " fill="#1E1E1E" transform="translate(514,328)"/>
<path d="M0 0 C0.53625 0.721875 1.0725 1.44375 1.625 2.1875 C5.963893 7.64705995 5.963893 7.64705995 12.140625 10.34765625 C16.81243302 10.40327301 21.40203212 9.78263283 26 9 C26.625 10.875 26.625 10.875 27 13 C25 15 25 15 22 15.3125 C13.35434544 15.04175925 5.8586119 11.65552706 -0.375 5.75 C-0.91125 5.1725 -1.4475 4.595 -2 4 C-1.34 2.68 -0.68 1.36 0 0 Z " fill="#E2E2E2" transform="translate(533,375)"/>
<path d="M0 0 C-3.16407888 3.16407888 -7.24339336 3.59374529 -11.5 4.6875 C-12.38042969 4.92533203 -13.26085937 5.16316406 -14.16796875 5.40820312 C-15.00972656 5.62798828 -15.85148437 5.84777344 -16.71875 6.07421875 C-17.49154297 6.27619873 -18.26433594 6.47817871 -19.06054688 6.6862793 C-21 7 -21 7 -23 6 C-22.67 5.34 -22.34 4.68 -22 4 C-34.54 3.67 -47.08 3.34 -60 3 C-60 2.67 -60 2.34 -60 2 C-59.4267247 1.98969254 -58.8534494 1.97938507 -58.26280212 1.96876526 C-52.27641363 1.86027741 -46.29016287 1.74571603 -40.30395508 1.62768555 C-38.07221367 1.58447176 -35.84044207 1.54278755 -33.60864258 1.50268555 C-30.39395061 1.44465344 -27.17940864 1.38105502 -23.96484375 1.31640625 C-22.97290512 1.29969376 -21.98096649 1.28298126 -20.95896912 1.26576233 C-13.93008404 1.11669202 -7.00573259 -0.17087153 0 0 Z " fill="#454545" transform="translate(482,831)"/>
<path d="M0 0 C0.66 1.65 1.32 3.3 2 5 C-1.96 6.65 -5.92 8.3 -10 10 C-9.67 8.35 -9.34 6.7 -9 5 C-9.66 4.67 -10.32 4.34 -11 4 C-9.5437455 3.32880451 -8.08492133 2.66318193 -6.625 2 C-5.81289063 1.62875 -5.00078125 1.2575 -4.1640625 0.875 C-2 0 -2 0 0 0 Z " fill="#E9E9E9" transform="translate(472,453)"/>
<path d="M0 0 C0.66 0.66 1.32 1.32 2 2 C0.71034824 3.37562854 -0.62689293 4.70766393 -2 6 C-2.66 6 -3.32 6 -4 6 C-4 6.99 -4 7.98 -4 9 C-3.34 9.33 -2.68 9.66 -2 10 C-3.07429598 10.84495189 -4.15989202 11.67554858 -5.25 12.5 C-5.85328125 12.9640625 -6.4565625 13.428125 -7.078125 13.90625 C-9 15 -9 15 -13 15 C-11.38989473 10.92623969 -8.46177729 8.23492931 -5.375 5.25 C-4.859375 4.74339844 -4.34375 4.23679687 -3.8125 3.71484375 C-2.54616661 2.47196098 -1.2736856 1.23534724 0 0 Z " fill="#101010" transform="translate(673,418)"/>
<path d="M0 0 C5.05508259 1.44319487 9.08739444 3.67850723 13.5 6.4375 C17.91819435 9.17321024 22.30666001 11.74748652 27 14 C25.02 14.99 25.02 14.99 23 16 C22.01 15.33613281 21.02 14.67226563 20 13.98828125 C18.66684796 13.09608321 17.33350227 12.20417449 16 11.3125 C15.31607178 10.85496338 14.63214355 10.39742676 13.92749023 9.92602539 C10.34125145 7.53448992 6.74103921 5.18586574 3.0625 2.9375 C2.051875 2.298125 1.04125 1.65875 0 1 C0 0.67 0 0.34 0 0 Z " fill="#494949" transform="translate(514,328)"/>
<path d="M0 0 C3.1875 1.1875 3.1875 1.1875 4.47265625 3.23828125 C6.64086396 8.35960339 7.66886277 12.65182811 7.1875 18.1875 C5.44151797 15.56852695 4.15099035 13.08470091 2.8125 10.25 C1.0224052 6.61138 -0.61755508 3.79078845 -3.8125 1.1875 C-2.8125 0.1875 -2.8125 0.1875 0 0 Z " fill="#D2D2D2" transform="translate(558.8125,363.8125)"/>
<path d="M0 0 C6.45353615 2.05764921 12.7361263 4.42383482 19 7 C18.01 7.495 18.01 7.495 17 8 C16.67 8.99 16.34 9.98 16 11 C13.3297416 9.35993936 10.66442704 7.71201438 8 6.0625 C7.236875 5.59392578 6.47375 5.12535156 5.6875 4.64257812 C4.965625 4.19462891 4.24375 3.74667969 3.5 3.28515625 C2.8296875 2.87144775 2.159375 2.45773926 1.46875 2.03149414 C0.9840625 1.69110107 0.499375 1.35070801 0 1 C0 0.67 0 0.34 0 0 Z " fill="#202020" transform="translate(518,299)"/>
<path d="M0 0 C0.66 0.33 1.32 0.66 2 1 C1.34 2.32 0.68 3.64 0 5 C0.66 5.66 1.32 6.32 2 7 C-3.94 7.495 -3.94 7.495 -10 8 C-10 7.34 -10 6.68 -10 6 C-7.8828125 4.45703125 -7.8828125 4.45703125 -5.125 2.8125 C-4.22007812 2.26207031 -3.31515625 1.71164062 -2.3828125 1.14453125 C-1.20332031 0.57798828 -1.20332031 0.57798828 0 0 Z " fill="#2E2E2E" transform="translate(647,454)"/>
<path d="M0 0 C0.8353125 1.0828125 0.8353125 1.0828125 1.6875 2.1875 C3.97909334 4.97457299 6.41459857 7.48641528 9 10 C6 11 6 11 4.2109375 10.109375 C3.60507812 9.66078125 2.99921875 9.2121875 2.375 8.75 C1.76398437 8.31171875 1.15296875 7.8734375 0.5234375 7.421875 C-1 6 -1 6 -2 3 C-1.34 2.01 -0.68 1.02 0 0 Z " fill="#D6D6D6" transform="translate(533,375)"/>
<path d="M0 0 C0.94833208 3.42288611 1 6.44980741 1 10 C1.33 10.66 1.66 11.32 2 12 C1.01 12.495 1.01 12.495 0 13 C-0.4683265 15.58605332 -0.4683265 15.58605332 -0.625 18.5625 C-0.69976563 19.57441406 -0.77453125 20.58632813 -0.8515625 21.62890625 C-0.90054688 22.41136719 -0.94953125 23.19382812 -1 24 C-1.33 24 -1.66 24 -2 24 C-2.3690205 7.1070615 -2.3690205 7.1070615 0 0 Z " fill="#616161" transform="translate(758,468)"/>
<path d="M0 0 C0.33 0.66 0.66 1.32 1 2 C-2.41155235 9.07581227 -2.41155235 9.07581227 -7 11 C-8.73425773 13.03317007 -8.73425773 13.03317007 -10 15 C-10.66 14.67 -11.32 14.34 -12 14 C-11.30132812 13.24074219 -10.60265625 12.48148437 -9.8828125 11.69921875 C-8.96343578 10.69540947 -8.04417079 9.69149785 -7.125 8.6875 C-6.66480469 8.18798828 -6.20460938 7.68847656 -5.73046875 7.17382812 C-3.61393392 4.85790957 -1.74473617 2.61710426 0 0 Z " fill="#282828" transform="translate(457,489)"/>
<path d="M0 0 C0.66 0.33 1.32 0.66 2 1 C-2.75 6.875 -2.75 6.875 -5 8 C-5 9.32 -5 10.64 -5 12 C-6.98 12.99 -6.98 12.99 -9 14 C-7.64002446 7.95566426 -4.14348206 4.36505864 0 0 Z " fill="#222222" transform="translate(824,460)"/>
<path d="M0 0 C2.96404505 2.80804268 5.44499019 5.18315774 7 9 C4 9 4 9 2.39453125 7.46875 C1.87246094 6.8190625 1.35039062 6.169375 0.8125 5.5 C0.28269531 4.8503125 -0.24710937 4.200625 -0.79296875 3.53125 C-1.19128906 3.0259375 -1.58960938 2.520625 -2 2 C-1.34 1.34 -0.68 0.68 0 0 Z " fill="#1A1A1A" transform="translate(435,162)"/>
<path d="M0 0 C4.875 4.625 4.875 4.625 6 8 C2.63408134 6.55746343 0.48952921 4.66735273 -2 2 C-1.34 1.34 -0.68 0.68 0 0 Z " fill="#282828" transform="translate(481,958)"/>
<path d="M0 0 C-2.6224715 2.6224715 -4.35023127 2.64217954 -8 3 C-10.875 2.5625 -10.875 2.5625 -13 2 C-13 1.67 -13 1.34 -13 1 C-8.61414671 0.29826347 -4.44209357 -0.10834375 0 0 Z " fill="#5B5B5B" transform="translate(482,831)"/>
<path d="M0 0 C2.95929119 2.75520215 5.03681826 5.46627288 7 9 C6.01 9.33 5.02 9.66 4 10 C3.32845067 8.71086513 2.66291141 7.41859796 2 6.125 C1.62875 5.40570313 1.2575 4.68640625 0.875 3.9453125 C0 2 0 2 0 0 Z " fill="#323232" transform="translate(502,322)"/>
<path d="M0 0 C0.66 0.33 1.32 0.66 2 1 C1.3125 2.9375 1.3125 2.9375 0 5 C-2.625 5.75 -2.625 5.75 -5 6 C-5 5.01 -5 4.02 -5 3 C-2.625 1.25 -2.625 1.25 0 0 Z " fill="#1F1F1F" transform="translate(647,454)"/>
<path d="M0 0 C0.66 0.33 1.32 0.66 2 1 C1.34 2.65 0.68 4.3 0 6 C-1.32 6 -2.64 6 -4 6 C-2.84826645 3.53199953 -1.95216435 1.95216435 0 0 Z " fill="#373737" transform="translate(664,427)"/>
<path d="M0 0 C1.5625 1.8125 1.5625 1.8125 3 4 C2.67 4.99 2.34 5.98 2 7 C1.01 6.67 0.02 6.34 -1 6 C-1.33 5.01 -1.66 4.02 -2 3 C-1.34 2.01 -0.68 1.02 0 0 Z " fill="#E1E1E1" transform="translate(533,375)"/>
<path d="M0 0 C0.66 0.33 1.32 0.66 2 1 C1.67 1.66 1.34 2.32 1 3 C0.34 3 -0.32 3 -1 3 C-1.66 4.32 -2.32 5.64 -3 7 C-3.99 6.67 -4.98 6.34 -6 6 C-4.02 4.02 -2.04 2.04 0 0 Z " fill="#212121" transform="translate(529,61)"/>
<path d="M0 0 C2 3 2 3 1.625 5.6875 C1.41875 6.450625 1.2125 7.21375 1 8 C0.01 8.33 -0.98 8.66 -2 9 C-1.34 6.03 -0.68 3.06 0 0 Z " fill="#D8D7D8" transform="translate(718,707)"/>
</svg>
